<?xml version="1.0" encoding="UTF-8"?> <svg xmlns="http://www.w3.org/2000/svg" xmlns:xlink="http://www.w3.org/1999/xlink" version="1.1" id="Layer_1" x="0px" y="0px" viewBox="0 0 215.5 43.6" style="enable-background:new 0 0 215.5 43.6;" xml:space="preserve"> <style type="text/css"> .st0{fill:#FFFFFF;} .st1{fill:#231F20;} .st2{fill:#008BCC;} </style> <circle class="st0" cx="20.3" cy="22.6" r="11.9"></circle> <path class="st0" d="M63.1,7.4C58,7.4,50.2,5,50.2,5s-1.7,4.4-1.7,10.4s5,21.8,15.1,25.8c0,0,14.4-9.1,14.4-25C78,6.7,76.6,5,76.6,5 S68.2,7.4,63.1,7.4z"></path> <path class="st1" d="M92.8,19.7V2.5h6.5c3.1-0.2,6.2,1.1,6.2,4.5c0,1.9-1.3,3.2-3,3.8c2.2,0.5,3.8,2,3.8,4.5c0,3.4-4.3,4.7-6.9,4.5 L92.8,19.7L92.8,19.7z M99.4,9.4c1.6,0,2.4-0.6,2.4-2s-0.9-2-2.4-2h-2.9v4.1L99.4,9.4C99.4,9.5,99.4,9.4,99.4,9.4z M99.4,16.8 c1.7,0,2.9-0.3,2.9-2.3s-1.2-2.3-2.9-2.3h-2.9v4.6C96.5,16.8,99.4,16.8,99.4,16.8z M112.2,2.5v17.2h-3.6V2.5H112.2z M123.1,18.2 c-0.8,1.1-1.9,1.8-3.7,1.8c-1.2,0-3.5-0.9-3.9-2.6c-0.2-0.7-0.2-1.5-0.2-1.9V7.7h3.6v7.2c0,1.3,0.4,2.8,2.1,2.8c1.1,0,2.1-1,2.1-2.8 V7.7h3.6v9.8c0,0.7,0.1,1.4,0.1,2.1h-3.6C123.2,19.6,123.1,18.2,123.1,18.2z M133,14.7c0,1.6,0.2,3,2.1,3c1.2,0,1.9-0.5,2.2-1.6h3.2 c-0.3,3-2.6,3.9-5.4,3.9c-4.1,0-5.8-2.3-5.8-6.3c0-3.6,2.1-6.4,5.8-6.4c2.2,0,4.1,0.8,5.1,2.9c0.3,0.7,0.5,1.4,0.6,2.1 s0.1,1.5,0.1,2.3L133,14.7C133,14.6,133,14.7,133,14.7z M137.2,12.3c0-1.3-0.4-2.5-2.1-2.5c-1.6,0-2,1.2-2.1,2.5H137.2L137.2,12.3z M153,8c0-1.8-1.1-3.3-3.3-3.3c-2.6,0-3.3,3.9-3.3,6.3s0.7,6.3,3.3,6.3c2.2,0,3.3-1.5,3.3-3.3h3.9c-0.2,4.3-3.3,5.9-7.2,5.9 c-5,0-7.2-3.9-7.2-9c0-5,2.2-9,7.2-9c4,0,7.1,1.6,7.2,5.9H153C153,7.8,153,8,153,8z M162.1,7.7l0.1,2.2c0.8-1.9,2.3-2.4,4.1-2.3v3.2 h-1.6c-0.6,0-1.4,0.4-1.7,0.9c-0.4,0.7-0.5,1.3-0.5,2.1v5.9h-3.6v-9.6c0-0.5-0.1-1.5-0.1-2.4H162.1z M174.1,20.1 c-3.9,0-6.3-2.6-6.3-6.4s2.3-6.4,6.3-6.4c3.9,0,6.3,2.6,6.3,6.4C180.4,17.5,178,20.1,174.1,20.1z M174.1,17.7c2.2,0,2.6-2.1,2.6-4 s-0.4-4-2.6-4s-2.6,2.1-2.6,4C171.6,15.6,171.9,17.7,174.1,17.7z M189,10.9c0-0.8-0.8-1.2-1.6-1.2c-1,0-1.4,0.3-1.4,1.1 c0,1.9,6.9,0.8,6.9,5.3c0,2.6-3.2,3.9-5.4,3.9c-2.8,0-5.2-1.1-5.3-3.8h3.3c0.1,0.9,0.9,1.5,2,1.5c1,0,1.7-0.4,1.7-1.3 c0-1-1.7-1.4-2.4-1.5c-2.3-0.5-4.4-1.1-4.4-3.8c0-2.5,3-3.6,5.1-3.6c2.5,0,4.7,0.9,4.8,3.6H189C189,11.1,189,10.9,189,10.9z M200.9,10.9c0-0.8-0.8-1.2-1.6-1.2c-1,0-1.4,0.3-1.4,1.1c0,1.9,6.9,0.8,6.9,5.3c0,2.6-3.2,3.9-5.4,3.9c-2.8,0-5.2-1.1-5.3-3.8h3.3 c0.1,0.9,0.9,1.5,2,1.5c1,0,1.7-0.4,1.7-1.3c0-1-1.7-1.4-2.4-1.5c-2.3-0.5-4.4-1.1-4.4-3.8c0-2.5,3-3.6,5.1-3.6 c2.5,0,4.7,0.9,4.8,3.6h-3.3L200.9,10.9L200.9,10.9z M92.8,43.1V25.9h6.5c3.1-0.2,6.2,1.1,6.2,4.5c0,1.9-1.3,3.2-3,3.8 c2.2,0.5,3.8,2,3.8,4.5c0,3.4-4.3,4.7-6.9,4.5L92.8,43.1L92.8,43.1z M99.4,32.8c1.6,0,2.4-0.6,2.4-2c0-1.4-0.9-2-2.4-2h-2.9v4.1 L99.4,32.8z M99.4,40.2c1.7,0,2.9-0.3,2.9-2.3s-1.2-2.3-2.9-2.3h-2.9v4.6C96.5,40.2,99.4,40.2,99.4,40.2z M112.2,25.9v17.2h-3.6 V25.9H112.2z M123.1,41.6c-0.8,1.1-1.9,1.8-3.7,1.8c-1.2,0-3.5-0.9-3.9-2.7c-0.2-0.7-0.2-1.5-0.2-1.9V31h3.6v7.3 c0,1.3,0.4,2.8,2.1,2.8c1.1,0,2.1-1,2.1-2.8v-7.2h3.6v9.8c0,0.7,0.1,1.4,0.1,2.1h-3.6C123.2,43,123.1,41.6,123.1,41.6z M133,38.1 c0,1.6,0.2,3,2.1,3c1.2,0,1.9-0.5,2.2-1.6h3.2c-0.3,3-2.6,3.9-5.4,3.9c-4.1,0-5.8-2.3-5.8-6.3c0-3.6,2.1-6.4,5.8-6.4 c2.2,0,4.1,0.8,5.1,2.9c0.3,0.7,0.5,1.4,0.6,2.1s0.1,1.5,0.1,2.3L133,38.1L133,38.1z M137.2,35.7c0-1.3-0.4-2.5-2.1-2.5 c-1.6,0-2,1.2-2.1,2.5H137.2L137.2,35.7z M152.5,30.8c-0.1-1.7-1.1-2.6-2.9-2.6c-1.4,0-2.7,0.7-2.7,2.2c0,1.9,1.7,2.1,3.2,2.4 c2.6,0.7,6.5,1.4,6.5,4.9c0,4.3-3.7,5.8-7.4,5.8c-3.9,0-6.7-1.5-6.6-5.9h3.8c-0.1,1.9,1,3.2,2.9,3.2c1.5,0,3.4-0.5,3.4-2.3 c0-2-2.5-2.2-3.9-2.6c-2.4-0.6-5.7-1.7-5.7-4.8c0-3.9,3.6-5.7,7.2-5.7c3.3,0,5.9,1.8,5.9,5.3L152.5,30.8z M159.1,43.1V25.9h3.6v6.7 c0.7-1.1,1.9-1.8,3.7-1.8c1.2,0,3.5,0.9,3.9,2.6c0.2,0.7,0.2,1.5,0.2,1.9v7.8H167v-7.2c0-1.3-0.4-2.7-2.1-2.7c-1.1,0-2.1,1-2.1,2.7 v7.2L159.1,43.1L159.1,43.1z M177.4,25.9V29h-3.8v-3.1H177.4z M177.2,31.1v12h-3.6v-12H177.2z M183.5,38.1c0,1.6,0.2,3,2.1,3 c1.2,0,1.9-0.5,2.2-1.6h3.2c-0.3,3-2.6,3.9-5.4,3.9c-4.1,0-5.8-2.3-5.8-6.3c0-3.6,2.1-6.4,5.8-6.4c2.2,0,4.1,0.8,5.1,2.9 c0.3,0.7,0.5,1.4,0.6,2.1s0.1,1.5,0.1,2.3L183.5,38.1L183.5,38.1z M187.6,35.7c0-1.3-0.4-2.5-2.1-2.5c-1.6,0-2,1.2-2.1,2.5H187.6 L187.6,35.7z M197.1,25.9v17.2h-3.6V25.9H197.1z M208.5,25.9h3.6v14.9c0,0.8,0.1,1.6,0.1,2.4h-3.6c0-0.6-0.1-1.1-0.1-1.7 c-0.8,1.4-2.1,2.1-3.7,2.1c-3.5,0-5.2-3.3-5.2-6.4c0-3.2,1.9-6.4,5.6-6.4c1.2,0,2.5,0.7,3.2,1.7L208.5,25.9L208.5,25.9z M205.9,41.1 c1.9,0,2.6-2.3,2.6-4c0-1.6-0.6-4-2.6-4c-2.3,0-2.6,2.1-2.6,4C203.3,38.9,203.6,41.1,205.9,41.1z M206.5,19.7 c-0.6,0-1.1-0.5-1.1-1.1s0.5-1.1,1.1-1.1s1.1,0.5,1.1,1.1S207.2,19.7,206.5,19.7 M206.5,17.2c-0.7,0-1.3,0.6-1.3,1.3 c0,0.7,0.6,1.3,1.3,1.3s1.3-0.6,1.3-1.3S207.2,17.2,206.5,17.2"></path> <path class="st1" d="M206.5,18.5h-0.3V18h0.4c0.2,0,0.4,0,0.4,0.2C207,18.5,206.7,18.5,206.5,18.5 M207.2,18.2 c0-0.3-0.1-0.4-0.5-0.4H206v1.5h0.2v-0.7h0.3l0.5,0.7h0.2l-0.4-0.7C207,18.6,207.2,18.5,207.2,18.2 M214.2,43 c-0.6,0-1.1-0.5-1.1-1.1s0.5-1.1,1.1-1.1s1.1,0.5,1.1,1.1S214.8,43,214.2,43 M214.2,40.5c-0.7,0-1.3,0.6-1.3,1.3 c0,0.7,0.6,1.3,1.3,1.3s1.3-0.6,1.3-1.3S214.9,40.5,214.2,40.5"></path> <path class="st1" d="M214.1,41.8h-0.3v-0.5h0.4c0.2,0,0.4,0,0.4,0.2C214.6,41.8,214.4,41.8,214.1,41.8 M214.9,41.5 c0-0.3-0.1-0.4-0.5-0.4h-0.7v1.5h0.2v-0.7h0.3l0.4,0.7h0.2l-0.4-0.7C214.7,41.9,214.9,41.8,214.9,41.5"></path> <g> <path class="st2" d="M38.4,38.7c-1.3,0-2.3,1-2.3,2.3s1,2.3,2.3,2.3c1.2,0,2.3-1,2.3-2.3C40.7,39.7,39.7,38.7,38.4,38.7z M38.4,42.9c-1.1,0-1.9-0.8-1.9-1.9s0.8-1.9,1.9-1.9c1.1,0,1.9,0.8,1.9,1.9S39.6,42.9,38.4,42.9z"></path> <path class="st2" d="M39.6,40.4c0-0.5-0.2-0.7-0.9-0.7h-1.1v2.6h0.3v-1.1h0.6l0.7,1.1h0.4l-0.8-1.1C39.3,41.1,39.6,40.9,39.6,40.4z M38.4,40.8h-0.5V40h0.7c0.3,0,0.6,0,0.6,0.4C39.3,40.9,38.7,40.8,38.4,40.8z M20.4,25.7c-0.1,0-0.1,0-0.2,0.1l-3.8,5.8 c1.2,0.5,2.5,0.8,3.9,0.8s2.7-0.3,3.9-0.8L20.4,25.7C20.5,25.7,20.4,25.7,20.4,25.7z M16.7,20.9L11,20.4c-0.2,0.7-0.3,1.5-0.3,2.3 c0,2.4,0.9,4.6,2.3,6.3l4-7.6C17.2,21.2,17.1,21,16.7,20.9z"></path> <path class="st2" d="M29.4,13.6V2.3H11.3v11.3H0v18.1h11.3V43h18.1V31.7h11.3V13.6H29.4z M20.4,11.5c4.5,0,8.4,2.6,10.1,6.5h-8 c-1.1,0-1.6-0.7-1.7-1.2c0-0.6,0.1-0.8,0.6-1.5c0.6-0.8,0.2-2.2-1.1-2.3c-1.3,0-1.7,1.5-1.1,2.3c0.5,0.7,0.6,0.9,0.6,1.5 c0,0.5-0.5,1.2-1.7,1.2h-8C12,14.2,15.9,11.5,20.4,11.5z M9.2,22.7c0-1.4,0.3-2.7,0.7-3.9l7.5,0.7c1.4,0.2,1.6,1.6,1.2,2.4 l-5.1,9.7C10.9,29.5,9.2,26.3,9.2,22.7z M26.5,32.1c-1.8,1.2-3.9,1.8-6.2,1.8s-4.4-0.7-6.2-1.8l5.5-8.1c0.4-0.6,1-0.5,1.4,0 L26.5,32.1z M27.3,31.5l-5.1-9.6c-0.4-0.8-0.2-2.2,1.2-2.4l7.5-0.7c0.5,1.2,0.7,2.6,0.7,3.9C31.6,26.3,29.9,29.5,27.3,31.5z"></path> <path class="st2" d="M27.7,16.4c-1.2-1.4-2.8-2.5-4.6-3c0.6,0.9,0.1,2.2-0.4,2.8c-0.1,0.1,0,0.2,0,0.2H27.7z M24.1,20.9 c-0.4,0-0.4,0.2-0.3,0.4l4,7.6c1.4-1.7,2.3-3.9,2.3-6.3c0-0.8-0.1-1.6-0.3-2.3C29.8,20.3,24.1,20.9,24.1,20.9z M17.7,13.5 c-1.8,0.5-3.4,1.6-4.6,3h5c0.1,0,0.1-0.1,0-0.2C17.6,15.6,17.1,14.4,17.7,13.5z"></path> </g> <g> <path class="st2" d="M77.1,2.3c-4.4,2.2-8.8,3.4-13.9,3.4s-9.5-1.2-13.9-3.4C46.4,8,46,17.2,48.5,24.9c2.4,7.4,7.1,14.2,14.7,18.4 c7.7-4.2,12.3-11,14.7-18.4C80.5,17.2,80,8,77.1,2.3z M75.1,24c-2.2,6.3-5.5,11.9-11.8,15.8C57,35.9,53.6,30.3,51.5,24 c-1.9-5.6-2.4-12.2-0.3-17.3c3.2,1.1,5,1.4,6.7,1.7c1.6,0.3,3,0.4,5.4,0.4c2.3,0,3.8-0.2,5.4-0.4c1.7-0.3,3.6-0.6,6.7-1.7 C77.4,11.8,77,18.4,75.1,24z"></path> <path class="st2" d="M68.7,9.8c-1.8,0.2-3.7,0.4-5.5,0.4s-3.6-0.2-5.5-0.4c-1.8-0.3-3.6-0.7-5.5-1.2c-1.3,3.8-1.1,8.6,0,12.8 c1.9,8,6.8,14.1,11,16.8c4.3-2.7,9.1-8.8,11-16.8c1-4.3,1.3-9,0-12.8C72.3,9.1,70.6,9.6,68.7,9.8z M62.2,34.5 c-0.1,0.4,0.1,0.6,0.1,0.8c-0.1,0.3-0.3,0.2-0.4,0c-0.2-0.3-0.3-0.5-0.3-1c-0.1-0.8,0.3-1.1,0.5-1.3c0.2-0.2,0.4-0.3,0.4-0.3 l0.1,1.3C62.4,34,62.2,34.1,62.2,34.5z M63.9,35.8c0,0.2-0.1,0.4-0.5,0.4c-0.3,0-0.5-0.1-0.5-0.5c-0.1-1.6-0.1-4.5-0.1-4.5 s0.4,0.1,0.7,0.3c0.1,0,0.3,0.2,0.5,0.4c0,0.1,0.1,0.1,0.1,0.2C64,33.2,63.9,35.3,63.9,35.8z M65.2,32.8c-0.4,0.3-0.8,0.4-0.8,0.4 V32c0,0,0.1-0.1,0.1-0.3c-0.1-0.2-0.9-0.8-1.3-1c-0.5-0.2-1.1-0.4-1.5-0.5c-1-0.4-1.4-1.3-1-2.3c0.1-0.4,0.6-0.6,0.8-0.7 c0.2-0.1,0.6-0.2,0.6-0.2l0.1,1.4c0,0-0.1,0-0.2,0.2s0.1,0.4,0.2,0.4c0.7,0.3,1.6,0.7,2.3,1.1c0.9,0.5,1.2,0.9,1.2,1.6 C65.8,32.2,65.5,32.6,65.2,32.8z M62.7,26.3c0.7,0.1,0.9,0.1,1.5,0.2l-0.1,2.8L63.5,29l-0.6-0.3C62.9,28.7,62.7,26.3,62.7,26.3z M66.7,26.9c-0.1,0.5-0.4,0.9-0.9,1.2c-0.5,0.3-1.1,0.3-1.1,0.3v-1.7c0,0,0.1,0,0.2-0.1s0.1-0.2,0.1-0.3s-0.1-0.2-0.2-0.3 c-0.2-0.1-0.4-0.1-0.5-0.1l-2.4-0.3c-1.4-0.2-2.5-1.1-2.4-2.5c0.1-0.9,1-1.2,1.7-1.5l0.5,1c0.1,0.4,0.2,0.6,0.2,0.6 s-0.3,0.1-0.3,0.3c0,0.2,0.3,0.3,0.4,0.3c1,0.1,2.4,0.3,3.1,0.6c0.5,0.2,0.9,0.4,1.2,0.8C66.7,25.9,66.8,26.4,66.7,26.9z M62.1,20.4c0,0,0.3,0,1.2,0.1c0.6,0,1.1,0.2,1.1,0.2l-0.1,3c-0.7-0.1-1.1-0.2-1.7-0.3c-0.2-1.1-0.5-1.5-0.9-2.3 c-0.1-0.2,0-0.3,0-0.3c0.1-0.1,0.5-0.2,0.5-0.2L62.1,20.4z M64.8,23.4c0,0,0.1-1.4,0.1-2.1c0.4-0.1,0.5-0.5,0.3-0.8 c-0.1-0.2-0.4-0.3-0.5-0.3c-0.8-0.2-1.5-0.2-2.3-0.3c-0.7-0.1-1.3-0.2-1.9-0.3c-1.3-0.3-2.5-1-3.1-2.2c-0.7-1.5-0.1-3.4,1.4-4.1 c1.1-0.6,2.3-0.5,3.4,0c0.4,0.1,0.6,0.5,0.8,0.8c0.1,0.1,0.3,0.2,0.4,0.4c0.1,0.1-0.1,0.1-0.1,0.1c-0.2,0.1-1.1,0.1-1.3,0h-1.2 c0.3,0.2,0.7,0.4,1.1,0.6c0.2,0.1,0.4,0.1,0.6,0.2c0.1,0,0.3,0.1,0.3,0.2s-0.2,0.1-0.4,0.2c-0.3,0.1-0.7,0.1-1.1,0 c-0.6-0.1-0.9-0.5-1.3-0.3c-0.3,0.2-0.3,0.5-0.2,0.9c0.1,0.6,0.7,0.8,1.2,1c1.7,0.6,3.6,0.2,5.2,1.1c0.6,0.3,1.4,1,1.5,1.7 C68.2,23,64.8,23.4,64.8,23.4z M67.8,14.1c-0.1,0.3-0.2,0.3-0.4,0.5c-0.4,0.4-1,0.8-1.6,1.3c-0.4,0.3-0.7,0.5-1,1 c-0.1,0.1-0.2,0.3-0.2,0.3c-1-0.2-1.9-0.2-2.7-0.4V16c0,0,0.9,0,1-0.6c0,0,0-0.2-0.1-0.3c-0.1-0.1-0.4-0.2-0.5-0.2 c0.7,0.1,1.4,0.4,2.1,0.7c0-0.1-0.1-0.4-0.1-0.4c-0.1-0.1-0.2-0.2-0.5-0.3c-0.4-0.1-1.5-0.2-1.5-0.2h0.9c0.2,0,0.5-0.1,0.5-0.2 c0.1-0.1,0-0.3-0.2-0.5l-0.3-0.3c-0.1-0.2-0.3-0.4-0.4-0.6c-0.2-0.3-1-0.6-1-0.6s-0.1-0.5,0.1-0.7c0.1-0.2,0.5-0.2,0.6-0.1 c0.5,0.3,1.2,0.6,1.9,0.8c0.2,0.1,0.2,0.1,0.2,0.4c0.1,0.5-0.1,1.2,0,1.5c0,0.1,0.2,0.1,0.2,0.1c0.7-0.4,1.1-1,1.8-1.3 C67.1,13,68,13.4,67.8,14.1z M77.3,38.8c-1.2,0-2.2,1-2.2,2.2s1,2.2,2.2,2.2s2.2-1,2.2-2.2S78.5,38.8,77.3,38.8z M77.3,42.9 c-1.1,0-1.9-0.8-1.9-1.9s0.8-1.9,1.9-1.9s1.9,0.8,1.9,1.9C79.2,42.1,78.4,42.9,77.3,42.9z"></path> <path class="st2" d="M78.5,40.4c0-0.5-0.2-0.7-0.9-0.7h-1.1v2.6h0.3v-1.1h0.5l0.7,1.1h0.4l-0.8-1.1C78.1,41.1,78.5,40.9,78.5,40.4z M77.3,40.9h-0.5v-0.8h0.7c0.3,0,0.6,0,0.6,0.4S77.6,40.9,77.3,40.9z M61.1,13.4c0.2,0.2,0.2,0.4,0.5,0.4c0.2,0,0.3-0.1,0.4-0.2 h0.2c-0.3-0.3-1-0.3-1.5-0.4C60.9,13.4,61,13.3,61.1,13.4z"></path> </g> </svg> 